<svg width="154" height="42" viewBox="0 0 154 42" fill="none" xmlns="http://www.w3.org/2000/svg">
<path d="M1.28291 39.2999V28.609H6.24655C7.47855 28.609 8.41018 28.9247 9.04146 29.5559C9.53018 30.0447 9.77455 30.6607 9.77455 31.4039C9.77455 32.4119 9.30618 33.1807 8.36946 33.7101C9.03127 33.9647 9.53018 34.3007 9.86618 34.7181C10.2022 35.1254 10.3702 35.6752 10.3702 36.3676C10.3702 37.3247 10.0138 38.0527 9.30109 38.5516C8.58836 39.0505 7.61091 39.2999 6.36873 39.2999H1.28291ZM3.57382 32.9312H5.74255C6.87273 32.9312 7.43782 32.5443 7.43782 31.7705C7.43782 31.4141 7.30546 31.1443 7.04073 30.961C6.776 30.7676 6.39418 30.6708 5.89527 30.6708H3.57382V32.9312ZM3.57382 37.2381H6.36873C7.47855 37.2381 8.03346 36.841 8.03346 36.0468C8.03346 35.273 7.45309 34.8861 6.29236 34.8861H3.57382V37.2381ZM14.8513 39.2999V35.0847L10.7429 28.609H13.492L16.0426 32.9007L18.6389 28.609H21.3117L17.2033 35.0388V39.2999H14.8513ZM29.8434 39.2999V30.7777H26.5903V28.609H35.4485V30.7777H32.1954V39.2999H29.8434ZM46.0503 37.8796C44.971 38.9487 43.6168 39.4832 41.9877 39.4832C40.3586 39.4832 39.0044 38.9487 37.9252 37.8796C36.8561 36.8105 36.3215 35.5021 36.3215 33.9545C36.3215 32.417 36.8612 31.1137 37.9404 30.0447C39.0299 28.9654 40.3892 28.4257 42.0183 28.4257C43.6474 28.4257 44.9964 28.9603 46.0655 30.0294C47.1448 31.0985 47.6844 32.4068 47.6844 33.9545C47.6844 35.4919 47.1397 36.8003 46.0503 37.8796ZM39.6968 36.337C40.3077 36.9887 41.0815 37.3145 42.0183 37.3145C42.955 37.3145 43.7237 36.9937 44.3244 36.3523C44.9252 35.7007 45.2255 34.9014 45.2255 33.9545C45.2255 33.0177 44.9201 32.2236 44.3092 31.5719C43.6983 30.9203 42.9244 30.5945 41.9877 30.5945C41.051 30.5945 40.2823 30.9203 39.6815 31.5719C39.0808 32.2134 38.7804 33.0076 38.7804 33.9545C38.7804 34.8912 39.0859 35.6854 39.6968 36.337ZM49.7708 39.2999V28.609H52.3061L55.1163 33.1297L57.9265 28.609H60.4617V39.2999H58.125V32.3203L55.1163 36.8868H55.0552L52.077 32.3661V39.2999H49.7708ZM72.2853 37.8796C71.2061 38.9487 69.8519 39.4832 68.2228 39.4832C66.5937 39.4832 65.2395 38.9487 64.1603 37.8796C63.0912 36.8105 62.5566 35.5021 62.5566 33.9545C62.5566 32.417 63.0963 31.1137 64.1755 30.0447C65.265 28.9654 66.6243 28.4257 68.2533 28.4257C69.8824 28.4257 71.2315 28.9603 72.3006 30.0294C73.3799 31.0985 73.9195 32.4068 73.9195 33.9545C73.9195 35.4919 73.3748 36.8003 72.2853 37.8796ZM65.9319 36.337C66.5428 36.9887 67.3166 37.3145 68.2533 37.3145C69.1901 37.3145 69.9588 36.9937 70.5595 36.3523C71.1603 35.7007 71.4606 34.9014 71.4606 33.9545C71.4606 33.0177 71.1552 32.2236 70.5443 31.5719C69.9333 30.9203 69.1595 30.5945 68.2228 30.5945C67.2861 30.5945 66.5173 30.9203 65.9166 31.5719C65.3159 32.2134 65.0155 33.0076 65.0155 33.9545C65.0155 34.8912 65.321 35.6854 65.9319 36.337ZM78.033 39.2999V30.7777H74.7799V28.609H83.6381V30.7777H80.385V39.2999H78.033ZM85.447 39.2999V28.609H87.799V32.8396H92.1364V28.609H94.4884V39.2999H92.1364V35.0083H87.799V39.2999H85.447ZM97.0507 39.2999V28.609H105.115V30.7014H99.3874V32.8701H104.427V34.9625H99.3874V37.2076H105.191V39.2999H97.0507ZM107.282 39.2999V28.609H112.169C113.524 28.609 114.562 28.9705 115.285 29.6934C115.896 30.3043 116.201 31.129 116.201 32.1676C116.201 33.8068 115.438 34.9116 113.911 35.4817L116.522 39.2999H113.773L111.452 35.8788H109.634V39.2999H107.282ZM109.634 33.8017H112.017C112.587 33.8017 113.03 33.6643 113.345 33.3894C113.661 33.1043 113.819 32.7276 113.819 32.2592C113.819 31.7603 113.656 31.3836 113.33 31.129C113.004 30.8643 112.551 30.7319 111.971 30.7319H109.634V33.8017ZM117.403 39.2999L121.985 28.5327H124.153L128.735 39.2999H126.276L125.299 36.9021H120.778L119.801 39.2999H117.403ZM121.618 34.825H124.459L123.038 31.3581L121.618 34.825ZM130.385 39.2999V28.609H134.753C136.016 28.609 137.014 28.9501 137.747 29.6323C138.48 30.3145 138.846 31.2156 138.846 32.3356C138.846 33.5268 138.439 34.4534 137.624 35.1152C136.81 35.7668 135.776 36.0927 134.524 36.0927H132.737V39.2999H130.385ZM132.737 34.0003H134.6C135.181 34.0003 135.634 33.8476 135.96 33.5421C136.296 33.2367 136.464 32.8396 136.464 32.3508C136.464 31.8316 136.296 31.4345 135.96 31.1596C135.624 30.8745 135.155 30.7319 134.555 30.7319H132.737V34.0003ZM143.446 39.2999V35.0847L139.338 28.609H142.087L144.638 32.9007L147.234 28.609H149.907L145.798 35.0388V39.2999H143.446Z" fill="#26C6DA"/>
<path d="M49.2141 8.574V1.28717H53.2646C53.2752 1.29763 53.2906 1.31041 53.3024 1.32436C53.3143 1.33831 53.3332 1.35574 53.3332 1.37201C53.3395 8.16686 53.3443 14.9621 53.3474 21.7577C53.3483 21.8355 53.3432 21.9132 53.332 21.9901C53.3203 22.0268 53.3019 22.0611 53.2776 22.0912C53.2669 22.1075 53.2515 22.1203 53.2172 22.1598H49.2342C49.1798 21.4532 49.2342 20.7431 49.2023 19.9761C49.1171 20.0386 49.0378 20.1086 48.9656 20.1853C48.1027 21.3475 46.893 21.9785 45.4975 22.2923C44.3409 22.5387 43.1397 22.4936 42.0057 22.161C40.5926 21.7697 39.3493 20.934 38.4666 19.782C37.5103 18.5687 37.0013 17.1799 36.7764 15.6656C36.4925 13.8063 36.7741 11.9061 37.586 10.2034C38.2252 8.83317 39.2431 7.79884 40.5972 7.0655C41.9229 6.34263 43.3421 6.14622 44.8098 6.2822C46.0285 6.39498 47.1877 6.85281 48.1465 7.6001C48.5122 7.88018 48.8283 8.2207 49.2141 8.574ZM49.2698 14.4035C49.2153 13.9851 49.1798 13.5644 49.1041 13.1495C48.717 11.0262 46.9735 9.73501 44.9861 9.73618C43.2107 9.73618 41.6554 10.9925 41.1654 12.4092C40.8407 13.2983 40.7551 14.2545 40.9168 15.1856C41.1133 16.2908 41.5678 17.2148 42.4472 17.9493C43.4948 18.8232 44.6725 19.13 46.0053 18.8058C46.8517 18.6176 47.6118 18.162 48.169 17.5088C48.9301 16.6058 49.2627 15.5691 49.2698 14.4035Z" fill="#142A58"/>
<path d="M1.40039 2.44257C1.60516 2.43327 1.74128 2.42281 1.87385 2.42281C4.43762 2.42281 7.00139 2.40654 9.56753 2.43327C11.1726 2.44954 12.6663 2.89814 13.9636 3.83834C15.1105 4.67394 15.8077 5.80474 16.1001 7.18889C16.2504 7.9094 16.2756 8.64967 16.1746 9.37842C16.0341 10.4957 15.5417 11.5419 14.7661 12.371C14.0638 13.1306 13.1677 13.6923 12.1704 13.9981C12.0248 14.0434 11.8839 14.105 11.6863 14.1794L16.467 22.1496H11.7679C10.312 19.6323 8.84511 17.0941 7.36714 14.535H5.45082V22.0891C4.99393 22.2053 2.82313 22.2425 1.47851 22.16C1.46668 22.1472 1.45129 22.1344 1.43945 22.1193C1.42689 22.1052 1.41868 22.0879 1.41578 22.0694C1.40868 21.9148 1.40039 21.7602 1.40039 21.6045V2.44257ZM5.44727 11.4483C5.51823 11.4676 5.59067 11.4812 5.66387 11.4889C6.84752 11.4889 8.03116 11.4889 9.2148 11.4889C9.6852 11.4737 10.1477 11.3658 10.5748 11.1717C11.1254 10.9461 11.5677 10.5231 11.8117 9.98857C12.0911 9.40748 12.1017 8.77758 12.0757 8.13955C12.0413 7.31208 11.3986 6.25915 10.4079 5.96745C9.88504 5.80717 9.34217 5.7184 8.79461 5.70363C7.80982 5.68736 6.82503 5.69666 5.8355 5.70363C5.70556 5.71243 5.5763 5.72911 5.44845 5.7536L5.44727 11.4483Z" fill="#142A58"/>
<path d="M94.6351 22.162H90.6569V19.9435C90.3018 20.2921 90.0142 20.5792 89.71 20.8523C88.8392 21.6413 87.7427 22.1487 86.5687 22.3062C86.1245 22.3778 85.6753 22.4144 85.2252 22.4154C83.1207 22.3956 81.3808 21.5635 80.0102 20.0225C79.1603 19.0649 78.6561 17.9155 78.3377 16.687C78.0193 15.4586 77.9968 14.2302 78.1282 13.0064C78.288 11.52 78.791 10.1231 79.7569 8.9272C80.8588 7.56397 82.2425 6.65167 84.0179 6.37042C85.0424 6.18675 86.0945 6.21247 87.1084 6.44596C88.3356 6.74632 89.4439 7.39848 90.2923 8.31939L90.638 8.68548V6.49826C91.9849 6.49826 93.2952 6.49826 94.5996 6.49826C94.7014 6.94803 94.7286 21.395 94.6351 22.162ZM82.2389 14.3755C82.2011 15.0728 82.3928 15.7771 82.6946 16.4837C83.4427 18.2269 85.4975 19.3147 87.422 18.801C88.4021 18.5407 89.2496 18.0363 89.7964 17.1972C90.195 16.5991 90.4638 15.9268 90.586 15.2221C90.7082 14.5175 90.6811 13.7957 90.5066 13.1017C90.3656 12.4209 90.0604 11.7833 89.6165 11.2423C88.7122 10.1824 87.5653 9.67565 86.1485 9.74654C85.5694 9.76636 85.0025 9.91455 84.49 10.18C83.9776 10.4455 83.5329 10.8213 83.1894 11.2794C82.4851 12.1674 82.207 13.1912 82.2378 14.3766L82.2389 14.3755Z" fill="#142A58"/>
<path d="M34.2685 22.1621H30.2879V19.9446C29.9328 20.2933 29.644 20.5815 29.341 20.8558C28.4691 21.6442 27.3718 22.1508 26.1972 22.3073C25.753 22.3781 25.3038 22.4142 24.8538 22.4154C22.8416 22.3922 21.1538 21.6309 19.7997 20.1852C18.8658 19.1881 18.3071 17.9852 17.9698 16.6778C17.6773 15.4725 17.6075 14.2255 17.7638 12.996C17.9343 11.5305 18.4231 10.158 19.3677 8.97371C20.4767 7.57911 21.877 6.67493 23.6702 6.37393C24.7329 6.18138 25.8256 6.21906 26.8719 6.48434C27.9153 6.76547 28.8709 7.29751 29.6523 8.03236C29.8381 8.20203 30.0204 8.38101 30.2559 8.5995V6.57267C30.7412 6.47737 33.3713 6.45645 34.2401 6.52618C34.3347 6.93875 34.3655 21.3671 34.2685 22.1621ZM26.0197 9.70821C25.6528 9.76283 25.2752 9.77794 24.9236 9.88137C23.9329 10.1719 23.1115 10.7077 22.5824 11.6049C21.7018 13.0994 21.6355 14.6544 22.219 16.2664C22.8807 18.0759 24.9414 19.3601 27.0388 18.8011C28.2224 18.4849 29.1599 17.8283 29.7067 16.701C30.3127 15.4517 30.411 14.1756 30.0618 12.8333C29.5978 11.0656 27.9372 9.67102 26.0197 9.70821Z" fill="#142A58"/>
<path d="M112.435 11.8209H108.15C108.011 11.5281 107.853 11.2443 107.677 10.9713C107.015 10.066 106.118 9.63249 104.969 9.61971C103.875 9.60809 102.968 9.96837 102.246 10.7493C101.734 11.306 101.46 11.9929 101.32 12.7169C101.076 13.8916 101.11 15.1055 101.42 16.265C101.682 17.2099 102.196 17.9827 103.063 18.5045C103.494 18.7766 103.995 18.9247 104.507 18.9322C104.981 18.9322 105.439 18.9601 105.912 18.8497C106.336 18.7604 106.733 18.5763 107.072 18.3119C107.412 18.0475 107.685 17.7097 107.87 17.3249C107.949 17.1715 108.023 17.0158 108.107 16.8542H112.407C112.46 17.2308 112.271 17.5411 112.146 17.8421C111.288 19.9096 109.779 21.3367 107.617 22.0259C106.536 22.384 105.387 22.4953 104.256 22.3513C103.516 22.2514 102.78 22.1782 102.075 21.9329C100.843 21.5262 99.75 20.7925 98.9168 19.8131C97.9356 18.651 97.4148 17.3156 97.1473 15.8513C97.0223 15.0879 96.9933 14.3124 97.0609 13.542C97.1418 12.2512 97.5236 10.996 98.177 9.87306C98.9346 8.57301 100.096 7.54511 101.491 6.93974C102.384 6.54163 103.346 6.31481 104.326 6.27149C104.739 6.24941 105.155 6.25405 105.569 6.26335C106.47 6.28854 107.359 6.47441 108.193 6.8119C110.348 7.66145 111.686 9.23387 112.364 11.3827C112.397 11.5272 112.421 11.6735 112.435 11.8209Z" fill="#142A58"/>
<path d="M72.771 14.2864L77.9672 22.0288C77.9755 22.0416 77.9672 22.0672 77.9672 22.0858C77.9624 22.1027 77.9548 22.1188 77.9447 22.1334C77.9317 22.1485 77.9128 22.166 77.8962 22.166H73.5167C72.4514 20.604 71.3625 19.0083 70.2202 17.3336L67.3262 22.1508H62.9988C64.7139 19.4906 66.4622 16.9373 68.1808 14.2946C66.4669 11.7145 64.6986 9.15077 62.9385 6.52077H67.5062L70.7458 11.3112L73.6694 6.51379H77.9151C77.7624 6.91707 74.9702 11.1358 72.771 14.2864Z" fill="#142A58"/>
<path d="M123.097 6.49359V9.73838C121.906 9.77208 120.751 9.73141 119.56 9.76395C119.551 9.9406 119.538 10.0894 119.538 10.2381C119.538 12.5625 119.538 14.8868 119.538 17.2112C119.538 17.2693 119.538 17.3274 119.538 17.3855C119.606 18.3152 119.951 18.7499 121.014 18.8161C121.544 18.8487 122.079 18.8161 122.61 18.8219H123.009C123.117 19.2624 123.14 21.4543 123.045 22.1597C122.926 22.1678 122.788 22.1853 122.655 22.1853C121.906 22.1853 121.155 22.2201 120.407 22.1771C119.49 22.1248 118.572 22.047 117.734 21.61C116.669 21.0556 115.989 20.2421 115.703 19.0672C115.552 18.4102 115.482 17.738 115.492 17.0647C115.492 14.8388 115.492 12.6128 115.492 10.3869V9.76163H113.623V6.5331C114.215 6.44826 114.822 6.5331 115.484 6.47964C115.516 5.22798 115.484 3.97865 115.504 2.73628C115.947 2.62006 118.179 2.58869 119.454 2.6712C119.467 2.68515 119.481 2.69909 119.493 2.7142C119.505 2.72931 119.521 2.74558 119.521 2.76185C119.521 3.9798 119.521 5.20241 119.521 6.45059C120.135 6.54007 120.721 6.48313 121.304 6.49359C121.886 6.50405 122.444 6.49359 123.097 6.49359Z" fill="#142A58"/>
<path d="M56.6924 22.1377V6.49478H60.6327C60.7251 6.95965 60.7511 21.3764 60.6682 22.1144C60.2362 22.1981 57.4937 22.2225 56.6924 22.1377Z" fill="#142A58"/>
<path d="M61.191 2.41234C61.1483 3.40484 60.6181 4.03939 59.709 4.43917C58.5834 4.93426 57.0257 4.45777 56.4777 3.3386C56.3227 3.03173 56.2397 2.6947 56.2346 2.35222C56.2296 2.00974 56.3026 1.67049 56.4485 1.35935C56.5943 1.0482 56.8093 0.773053 57.0775 0.55407C57.3457 0.335086 57.6605 0.177825 57.9987 0.0938105C58.5871 -0.0631768 59.2121 -0.0222644 59.7741 0.210028C60.2176 0.382207 60.5938 0.688337 60.8485 1.08421C61.1032 1.48007 61.2231 1.94518 61.191 2.41234Z" fill="#142A58"/>
<path d="M124.955 4.32513C124.973 3.01884 125.547 1.97986 126.789 1.37553C128.143 0.717737 129.825 1.03501 130.758 2.12164C131.073 2.47959 131.308 2.89834 131.449 3.35092C131.589 3.80349 131.631 4.27986 131.572 4.74932C131.519 5.34573 131.304 5.91726 130.949 6.40426C130.508 7.02707 129.837 7.45681 129.079 7.60246C128.175 7.77097 127.275 7.70008 126.468 7.20267C125.41 6.54953 124.953 5.57795 124.955 4.32513ZM125.529 4.35534C125.566 4.65892 125.619 4.96035 125.689 5.25835C125.975 6.26828 126.799 6.9958 127.869 7.07948C128.158 7.10098 128.448 7.10098 128.737 7.07948C129.4 7.03183 129.913 6.69828 130.318 6.20436C130.91 5.48846 131.077 4.6854 130.91 3.77193C130.811 3.18742 130.508 2.65484 130.054 2.26522C129.599 1.8756 129.02 1.65314 128.417 1.63585C126.811 1.56496 125.539 2.74805 125.528 4.35999L125.529 4.35534Z" fill="#142A58"/>
<path d="M127.702 6.13456H127.075C126.956 5.75453 126.916 3.57779 127.018 2.5853C127.671 2.53649 128.332 2.50278 128.983 2.66432C129.187 2.70984 129.369 2.82024 129.502 2.97831C129.636 3.13638 129.712 3.33326 129.719 3.53827C129.756 4.07055 129.558 4.39363 129.046 4.63885C129.011 4.65512 128.973 4.66558 128.889 4.69812L129.868 6.11248H129.015L128.085 4.76785H127.702V6.13456ZM128.862 4.01825C129.033 3.57662 129.033 3.57663 128.667 3.24425C128.369 3.25935 128.041 3.1966 127.72 3.27911V4.11355C128.125 4.23093 128.475 4.07984 128.862 4.01825Z" fill="#142A58"/>
</svg>
