<svg width="172" height="154" viewBox="0 0 172 154" fill="none" xmlns="http://www.w3.org/2000/svg">
<g clip-path="url(#clip0)">
<path d="M170.491 58.8927C170.43 58.8927 170.369 58.8739 170.319 58.8388L86.866 0.870437C86.612 0.69485 86.3103 0.601013 86.0012 0.601539C85.6922 0.602065 85.3908 0.696927 85.1374 0.873377L2.28567 58.8382C2.22014 58.884 2.13903 58.902 2.06019 58.8882C1.98135 58.8744 1.91123 58.83 1.86527 58.7646C1.81931 58.6992 1.80125 58.6183 1.81509 58.5397C1.82893 58.4611 1.87352 58.3911 1.93905 58.3453L84.7909 0.380476C85.1456 0.133483 85.5676 0.000711987 86.0003 2.8555e-06C86.4329 -0.000706276 86.8554 0.130679 87.2109 0.376508L170.664 58.3447C170.716 58.3813 170.756 58.4338 170.777 58.4945C170.798 58.5551 170.798 58.6208 170.779 58.6819C170.76 58.7431 170.722 58.7965 170.67 58.8344C170.618 58.8723 170.555 58.8927 170.491 58.8927L170.491 58.8927Z" fill="#3F3D56"/>
<path d="M7.02002 60.9475L86.0833 2.50378L165.746 65.106L90.157 109.8L49.1184 100.47L7.02002 60.9475Z" fill="#E6E6E6"/>
<path d="M52.5822 137.406H13.523C13.2831 137.407 13.0456 137.36 12.8239 137.268C12.6022 137.177 12.4008 137.043 12.2311 136.874C12.0614 136.705 11.9268 136.504 11.8349 136.283C11.7431 136.062 11.6958 135.825 11.6958 135.586C11.6958 135.347 11.7431 135.11 11.8349 134.889C11.9268 134.668 12.0614 134.467 12.2311 134.298C12.4008 134.129 12.6022 133.995 12.8239 133.904C13.0456 133.813 13.2831 133.766 13.523 133.766H52.5822C52.822 133.766 53.0595 133.813 53.2812 133.904C53.5029 133.995 53.7043 134.129 53.874 134.298C54.0437 134.467 54.1783 134.668 54.2702 134.889C54.362 135.11 54.4093 135.347 54.4093 135.586C54.4093 135.825 54.362 136.062 54.2702 136.283C54.1783 136.504 54.0437 136.705 53.874 136.874C53.7043 137.043 53.5029 137.177 53.2812 137.268C53.0595 137.36 52.822 137.407 52.5822 137.406Z" fill="#11D5D5"/>
<path d="M27.5365 129.581H13.523C13.2831 129.581 13.0456 129.535 12.8239 129.443C12.6022 129.352 12.4008 129.218 12.2311 129.049C12.0614 128.88 11.9268 128.679 11.8349 128.458C11.7431 128.237 11.6958 128 11.6958 127.761C11.6958 127.522 11.7431 127.285 11.8349 127.064C11.9268 126.843 12.0614 126.642 12.2311 126.473C12.4008 126.304 12.6022 126.17 12.8239 126.079C13.0456 125.987 13.2831 125.941 13.523 125.941H27.5365C27.7764 125.941 28.0139 125.987 28.2356 126.079C28.4573 126.17 28.6587 126.304 28.8284 126.473C28.9981 126.642 29.1327 126.843 29.2246 127.064C29.3164 127.285 29.3637 127.522 29.3637 127.761C29.3637 128 29.3164 128.237 29.2246 128.458C29.1327 128.679 28.9981 128.88 28.8284 129.049C28.6587 129.218 28.4573 129.352 28.2356 129.443C28.0139 129.535 27.7764 129.581 27.5365 129.581Z" fill="#11D5D5"/>
<path d="M87.1949 93.4999C86.898 93.5002 86.6039 93.4428 86.3291 93.3307L37.5684 73.1509V9.98461C37.569 9.42605 37.7918 8.89056 38.1877 8.4956C38.5837 8.10063 39.1206 7.87846 39.6806 7.87781H133.224C133.784 7.87846 134.321 8.10063 134.717 8.4956C135.113 8.89056 135.336 9.42605 135.337 9.98461V73.195L135.245 73.2341L88.0869 93.3209C87.8044 93.4392 87.5012 93.5001 87.1949 93.4999Z" fill="white"/>
<path d="M87.1949 93.6503C86.8783 93.6507 86.5647 93.5895 86.2716 93.4702L37.4175 73.2515V9.98471C37.4182 9.38625 37.6568 8.81249 38.0811 8.38931C38.5054 7.96613 39.0806 7.72809 39.6806 7.72742H133.224C133.825 7.72809 134.4 7.96613 134.824 8.38931C135.248 8.81249 135.487 9.38625 135.488 9.98471V73.2944L88.1461 93.4593C87.845 93.5857 87.5215 93.6506 87.1949 93.6503ZM38.021 72.8494L86.5018 92.9136C86.954 93.0966 87.4604 93.0936 87.9104 92.9053L134.884 72.8971V9.98471C134.884 9.54584 134.709 9.1251 134.397 8.81478C134.086 8.50445 133.665 8.32988 133.225 8.32936H39.6806C39.2406 8.32988 38.8188 8.50445 38.5077 8.81478C38.1965 9.1251 38.0215 9.54584 38.021 9.98471L38.021 72.8494Z" fill="#3F3D56"/>
<path d="M169.888 58.2908H169.827L135.186 73.0444L87.7895 93.2307C87.6043 93.3084 87.4055 93.3489 87.2046 93.3499C87.0037 93.351 86.8045 93.3125 86.6185 93.2367L37.7193 73.0023L2.22691 58.3149L2.17269 58.2908H2.11228C1.55226 58.2914 1.01535 58.5136 0.619357 58.9085C0.223362 59.3035 0.000621388 59.839 0 60.3976V151.893C0.000622185 152.452 0.223362 152.987 0.619357 153.382C1.01535 153.777 1.55226 153.999 2.11228 154H169.888C170.448 153.999 170.985 153.777 171.381 153.382C171.777 152.987 171.999 152.452 172 151.893V60.3976C171.999 59.839 171.777 59.3035 171.381 58.9085C170.985 58.5136 170.448 58.2914 169.888 58.2908ZM171.396 151.893C171.396 152.292 171.237 152.675 170.954 152.957C170.671 153.239 170.288 153.398 169.888 153.398H2.11228C1.71218 153.398 1.32851 153.239 1.0456 152.957C0.762681 152.675 0.603669 152.292 0.603509 151.893V60.3976C0.604056 60.0084 0.7554 59.6345 1.0259 59.3541C1.2964 59.0736 1.66511 58.9083 2.05497 58.8927L37.7193 73.6524L86.3863 93.7935C86.9131 94.0073 87.5034 94.004 88.0279 93.7844L135.186 73.6975L169.948 58.8927C170.337 58.9095 170.705 59.0752 170.975 59.3555C171.245 59.6358 171.396 60.009 171.396 60.3976V151.893Z" fill="#3F3D56"/>
<path d="M86.7074 75.5882C84.9073 75.5916 83.1549 75.011 81.7146 73.9341L81.6253 73.8672L62.8227 59.5086C61.9519 58.8431 61.2211 58.0131 60.6719 57.0659C60.1227 56.1187 59.766 55.0729 59.622 53.9882C59.4781 52.9035 59.5497 51.8011 59.8329 50.744C60.1161 49.687 60.6052 48.6959 61.2724 47.8273C61.9396 46.9588 62.7718 46.2298 63.7215 45.6821C64.6711 45.1343 65.7196 44.7785 66.8072 44.6349C67.8947 44.4913 68.9999 44.5628 70.0597 44.8453C71.1196 45.1277 72.1132 45.6156 72.984 46.2811L85.1629 55.5955L113.944 18.1585C114.611 17.2902 115.444 16.5615 116.393 16.0141C117.343 15.4667 118.392 15.1112 119.479 14.968C120.567 14.8248 121.672 14.8967 122.732 15.1795C123.792 15.4624 124.785 15.9507 125.656 16.6165L125.477 16.8588L125.66 16.62C127.416 17.9661 128.565 19.952 128.855 22.142C129.145 24.332 128.552 26.5473 127.206 28.3018L93.3534 72.3366C92.5704 73.3513 91.5636 74.1725 90.4111 74.7364C89.2585 75.3003 87.9912 75.5918 86.7074 75.5882Z" fill="#11D5D5"/>
</g>
<defs>
<clipPath id="clip0">
<rect width="172" height="154" fill="white"/>
</clipPath>
</defs>
</svg>
