<svg width="86" height="86" viewBox="0 0 86 86" fill="none" xmlns="http://www.w3.org/2000/svg">
<path d="M73.4433 40.9655L73.4586 41.1992H73.6928H75.9492C76.9437 41.1992 77.75 42.0055 77.75 43C77.75 43.9945 76.9437 44.8008 75.9492 44.8008H73.6928H73.4586L73.4433 45.0345C72.4463 60.2836 60.2611 72.4477 45.0345 73.4433L44.8008 73.4586V73.6928V75.9492C44.8008 76.9437 43.9945 77.75 43 77.75C42.0055 77.75 41.1992 76.9437 41.1992 75.9492V73.6928V73.4586L40.9655 73.4433C25.7164 72.4463 13.5524 60.2612 12.5567 45.0345L12.5414 44.8008H12.3072H10.0508C9.05627 44.8008 8.25 43.9945 8.25 43C8.25 42.0055 9.05627 41.1992 10.0508 41.1992H12.3072H12.5414L12.5567 40.9655C13.5538 25.7166 25.7388 13.5523 40.9655 12.5567L41.1992 12.5414V12.3072V10.0508C41.1992 9.05627 42.0055 8.25 43 8.25C43.9945 8.25 44.8008 9.05627 44.8008 10.0508V12.3072V12.5414L45.0345 12.5567C60.2836 13.5538 72.4477 25.7389 73.4433 40.9655ZM44.8008 69.5821V69.8519L45.0698 69.8314C58.262 68.8231 68.8231 58.262 69.8314 45.0698L69.8519 44.8008H69.5821H67.6094C66.6149 44.8008 65.8086 43.9945 65.8086 43C65.8086 42.0055 66.6149 41.1992 67.6094 41.1992H69.5821H69.8519L69.8314 40.9302C68.8231 27.738 58.262 17.1769 45.0698 16.1686L44.8008 16.1481V16.4179V18.3906C44.8008 19.3851 43.9945 20.1914 43 20.1914C42.0055 20.1914 41.1992 19.3851 41.1992 18.3906V16.4179V16.1481L40.9302 16.1686C27.738 17.1769 17.1769 27.738 16.1686 40.9302L16.1481 41.1992H16.4179H18.3906C19.3851 41.1992 20.1914 42.0055 20.1914 43C20.1914 43.9945 19.3851 44.8008 18.3906 44.8008H16.4179H16.1481L16.1686 45.0698C17.1769 58.262 27.738 68.8231 40.9302 69.8314L41.1992 69.8519V69.5821V67.6094C41.1992 66.6149 42.0055 65.8086 43 65.8086C43.9945 65.8086 44.8008 66.6149 44.8008 67.6094V69.5821Z" fill="#142A58" stroke="#FAFAFA" stroke-width="0.5"/>
<path d="M44.75 41V41.25H45H51C51.9665 41.25 52.75 42.0335 52.75 43C52.75 43.9665 51.9665 44.75 51 44.75H45H44.75V45V51C44.75 51.9665 43.9665 52.75 43 52.75C42.0335 52.75 41.25 51.9665 41.25 51V45V44.75H41H35C34.0335 44.75 33.25 43.9665 33.25 43C33.25 42.0335 34.0335 41.25 35 41.25H41H41.25V41V35C41.25 34.0335 42.0335 33.25 43 33.25C43.9665 33.25 44.75 34.0335 44.75 35V41Z" fill="#142A58" stroke="#FAFAFA" stroke-width="0.5"/>
</svg>
