<svg width="70" height="70" viewBox="0 0 70 70" fill="none" xmlns="http://www.w3.org/2000/svg">
<g clip-path="url(#clip0_407_77)">
<path d="M69.9943 28.8691C69.9939 28.1147 69.3822 27.5033 68.6278 27.5033H62.7088C62.0663 25.1161 61.1177 22.829 59.8791 20.6801L64.0588 16.5005C64.315 16.2442 64.459 15.8965 64.459 15.5339C64.459 15.1714 64.3148 14.8238 64.0584 14.5676L55.4095 5.92517C54.8759 5.39197 54.0109 5.3921 53.4773 5.92558L49.3009 10.1023C47.1521 8.86368 44.8651 7.91533 42.4779 7.27267V1.36778C42.4779 0.613068 41.8661 0.00128937 41.1114 0.00128937H28.8847C28.13 0.00128937 27.5182 0.613068 27.5182 1.36778V7.27267C25.1309 7.91519 22.8438 8.86368 20.6952 10.1023L16.5186 5.92572C15.9851 5.39238 15.1201 5.3921 14.5864 5.92544L5.93758 14.5678C5.68123 14.824 5.53707 15.1717 5.53693 15.5342C5.53679 15.8967 5.68082 16.2444 5.93718 16.5007L10.1169 20.6804C8.87828 22.8292 7.9298 25.1162 7.28713 27.5036H1.36831C0.613865 27.5036 0.00222305 28.115 0.0018131 28.8694L-0.00488272 41.0958C-0.00501936 41.4584 0.138736 41.8061 0.39509 42.0626C0.651307 42.319 0.998943 42.4631 1.36161 42.4631H7.28713C7.92966 44.8504 8.87828 47.1376 10.1169 49.2864L5.92296 53.4802C5.38948 54.0137 5.38921 54.8787 5.92255 55.4124L14.5649 64.0612C14.8212 64.3176 15.1688 64.4618 15.5313 64.4619C15.5315 64.4619 15.5315 64.4619 15.5316 64.4619C15.894 64.4619 16.2416 64.3179 16.4978 64.0616L20.6949 59.8646C22.8437 61.1032 25.1308 62.0518 27.5183 62.6943V68.6339C27.5183 69.3886 28.1301 70.0004 28.8848 70.0004H41.1115C41.8662 70.0004 42.478 69.3886 42.478 68.6339V62.6943C44.8654 62.0517 47.1527 61.1032 49.3015 59.8646L53.4986 64.0616C53.7549 64.3179 54.1026 64.4619 54.4652 64.4619C54.8277 64.4619 55.1753 64.3177 55.4315 64.0612L64.0739 55.4124C64.6073 54.8787 64.607 54.0138 64.0735 53.4802L59.8796 49.2863C61.1182 47.1375 62.0667 44.8504 62.7094 42.463H68.635C68.9975 42.463 69.3452 42.319 69.6015 42.0625C69.8577 41.806 70.0016 41.4582 70.0015 41.0957L69.9943 28.8691ZM61.6409 39.73C61.0034 39.73 60.4508 40.1707 60.3087 40.7921C59.6626 43.6192 58.5495 46.3035 57.0004 48.7705C56.6614 49.3102 56.7407 50.0127 57.1913 50.4635L61.1746 54.4469L54.4641 61.1625L50.4783 57.1767C50.0276 56.7262 49.3251 56.6468 48.7853 56.9858C46.3184 58.535 43.6341 59.6481 40.8069 60.2942C40.1856 60.4362 39.7449 60.9889 39.7449 61.6264V67.2676H30.2512V61.6264C30.2512 60.9889 29.8105 60.4363 29.1891 60.2942C26.362 59.6481 23.6777 58.535 21.2107 56.9858C20.6708 56.6468 19.9685 56.7262 19.5177 57.1767L15.5319 61.1625L8.82129 54.4469L12.8046 50.4635C13.2554 50.0129 13.3345 49.3104 12.9957 48.7706C11.4463 46.3035 10.3333 43.6191 9.68724 40.7921C9.54526 40.1707 8.99252 39.73 8.35505 39.73H2.72879L2.73412 30.2363H8.35532C8.99279 30.2363 9.5454 29.7956 9.68752 29.1743C10.3336 26.3473 11.4467 23.6629 12.9959 21.1961C13.335 20.6564 13.2557 19.9539 12.805 19.5031L8.83646 15.5345L15.552 8.82405L19.5181 12.7902C19.9687 13.2408 20.6712 13.3201 21.211 12.9811C23.6778 11.4319 26.362 10.3189 29.189 9.67278C29.8104 9.5308 30.251 8.97805 30.251 8.34058V2.73427H39.7448V8.34072C39.7448 8.97819 40.1855 9.5308 40.8068 9.67291C43.6338 10.319 46.318 11.432 48.7849 12.9812C49.3248 13.3202 50.0272 13.241 50.478 12.7902L54.444 8.82419L61.1596 15.5348L57.191 19.5032C56.7404 19.954 56.6611 20.6564 57.0001 21.1963C58.5495 23.6632 59.6625 26.3474 60.3086 29.1744C60.4505 29.7957 61.0033 30.2364 61.6408 30.2364H67.262L67.2673 39.7301H61.6409V39.73Z" fill="#142A58"/>
<path d="M49.8795 20.1024C45.9048 16.1277 40.6201 13.9389 34.9991 13.9389C29.378 13.9389 24.0934 16.1279 20.1188 20.1024C16.1441 24.0772 13.9551 29.3618 13.9551 34.9829C13.9551 40.6039 16.1441 45.8886 20.1186 49.8632C23.4082 53.1527 27.5779 55.2187 32.1771 55.8379C33.1031 55.9625 34.0356 56.0241 34.9674 56.0241C38.514 56.0241 42.0478 55.1313 45.1466 53.4244C45.8076 53.0602 46.0484 52.2291 45.6844 51.5681C45.32 50.9072 44.4891 50.6665 43.8281 51.0304C36.7371 54.9364 27.7822 53.6617 22.0511 47.9305C18.5927 44.4721 16.6879 39.8738 16.6879 34.9827C16.6879 30.0916 18.5925 25.4934 22.0511 22.0349C25.5096 18.5763 30.1078 16.6717 34.9989 16.6717C39.89 16.6717 44.4883 18.5763 47.9467 22.0349C53.6894 27.7775 54.9571 36.7454 51.0295 43.8429C50.6641 44.5032 50.9031 45.3347 51.5636 45.7001C52.224 46.0655 53.0555 45.8264 53.4208 45.1661C55.5875 41.2508 56.4526 36.6391 55.8567 32.1806C55.2411 27.5737 53.1741 23.3971 49.8795 20.1024Z" fill="#142A58"/>
<path d="M48.9132 47.531C48.5539 47.531 48.2014 47.6758 47.9472 47.93C47.6931 48.1841 47.5469 48.5367 47.5469 48.8974C47.5469 49.2567 47.6931 49.6092 47.9472 49.8634C48.2014 50.1175 48.5539 50.2637 48.9132 50.2637C49.274 50.2637 49.6251 50.1175 49.8793 49.8634C50.1348 49.6092 50.2796 49.2567 50.2796 48.8974C50.2796 48.5367 50.1348 48.1855 49.8793 47.93C49.6251 47.6758 49.2726 47.531 48.9132 47.531Z" fill="#142A58"/>
<path d="M49.6204 33.633H48.3537C47.599 33.633 46.9873 34.2448 46.9873 34.9994C46.9873 35.754 47.599 36.3658 48.3537 36.3658H49.6204C50.375 36.3658 50.9868 35.754 50.9868 34.9994C50.9868 34.2448 50.375 33.633 49.6204 33.633Z" fill="#142A58"/>
<path d="M20.3781 33.5996C19.6234 33.5996 19.0117 34.2113 19.0117 34.966C19.0117 35.7206 19.6234 36.3323 20.3781 36.3323H21.6448C22.3995 36.3323 23.0112 35.7206 23.0112 34.966C23.0112 34.2113 22.3995 33.5996 21.6448 33.5996H20.3781Z" fill="#142A58"/>
<path d="M36.3821 21.628V20.3613C36.3821 19.6066 35.7704 18.9949 35.0158 18.9949C34.2611 18.9949 33.6494 19.6066 33.6494 20.3613V21.628C33.6494 22.3826 34.2611 22.9944 35.0158 22.9944C35.7704 22.9944 36.3821 22.3826 36.3821 21.628Z" fill="#142A58"/>
<path d="M33.6162 48.3374V49.6042C33.6162 50.3588 34.2279 50.9706 34.9826 50.9706C35.7372 50.9706 36.3489 50.3588 36.3489 49.6042V48.3374C36.3489 47.5828 35.7372 46.9711 34.9826 46.9711C34.2279 46.9711 33.6162 47.5828 33.6162 48.3374Z" fill="#142A58"/>
<path d="M44.3381 23.7114L36.7769 31.2726C36.2385 31.0136 35.6355 30.8682 34.9992 30.8682C34.363 30.8682 33.76 31.0135 33.2216 31.2726L29.5369 27.588C29.0033 27.0543 28.1381 27.0543 27.6043 27.588C27.0707 28.1216 27.0707 28.9868 27.6043 29.5206L31.2889 33.2052C31.03 33.7436 30.8846 34.3466 30.8846 34.9829C30.8846 37.2517 32.7303 39.0974 34.9991 39.0974C37.2679 39.0974 39.1136 37.2517 39.1136 34.9829C39.1136 34.3465 38.9683 33.7436 38.7093 33.2052L46.2705 25.644C46.8041 25.1104 46.8041 24.2451 46.2705 23.7114C45.7368 23.1776 44.8717 23.1777 44.3381 23.7114ZM34.9991 36.3644C34.2373 36.3644 33.6176 35.7446 33.6176 34.9829C33.6176 34.2212 34.2374 33.6013 34.9991 33.6013C35.7608 33.6013 36.3806 34.2212 36.3806 34.9829C36.3806 35.7446 35.7609 36.3644 34.9991 36.3644Z" fill="#142A58"/>
</g>
<defs>
<clipPath id="clip0_407_77">
<rect width="70" height="70" fill="white"/>
</clipPath>
</defs>
</svg>
