<svg width="67" height="70" viewBox="0 0 67 70" fill="none" xmlns="http://www.w3.org/2000/svg">
<g clip-path="url(#clip0_407_51)">
<path d="M17.0943 34.4511H8.96054C8.27124 34.4511 7.85766 33.9021 7.85766 33.353C7.7198 19.2158 19.3001 7.68638 33.4996 7.68638C34.1889 7.68638 34.6025 8.2354 34.6025 8.78442V16.8825C34.6025 17.5687 34.0511 17.9805 33.4996 17.9805C25.0902 17.9805 18.1972 24.8432 18.1972 33.2158C18.1972 33.9021 17.6457 34.4511 17.0943 34.4511ZM10.0634 32.1178H15.8536C16.5429 23.4707 23.5737 16.4707 32.2589 15.7844V10.0197C20.2651 10.5687 10.6149 20.1766 10.0634 32.1178Z" fill="#142A58"/>
<path d="M50.7322 52.1569H16.2671C14.1992 52.1569 12.5449 50.5099 12.5449 48.4511C12.5449 46.3922 14.1992 44.7452 16.2671 44.7452H50.7322C52.8001 44.7452 54.4544 46.3922 54.4544 48.4511C54.4544 50.5099 52.8001 52.1569 50.7322 52.1569ZM16.2671 46.9413C15.44 46.9413 14.8885 47.6275 14.8885 48.3138C14.8885 49.1373 15.5778 49.6863 16.2671 49.6863H50.7322C51.5593 49.6863 52.1108 49.0001 52.1108 48.3138C52.1108 47.4903 51.4215 46.9413 50.7322 46.9413H16.2671Z" fill="#142A58"/>
<path d="M47.9753 63.1372C47.8374 63.1372 47.6996 63.1372 47.4239 63C47.1482 62.8627 46.8724 62.5882 46.7346 62.1765L44.6667 52.1568H22.1955L19.9897 62.3137C19.8519 62.7255 19.714 63 19.3004 63.1372C19.0247 63.2745 18.6111 63.2745 18.3354 63.1372C7.03086 57.3725 0 45.9804 0 33.3529C0 14.9608 15.0267 0 33.5 0C51.9733 0 67 14.9608 67 33.3529C67 45.9804 59.9691 57.3725 48.6646 63.1372C48.3889 63.1372 48.251 63.1372 47.9753 63.1372ZM21.2305 49.8235H45.6317C46.1831 49.8235 46.5967 50.2353 46.7346 50.7843L48.8025 60.3921C58.5905 54.9019 64.5185 44.7451 64.5185 33.3529C64.5185 16.1961 50.5947 2.33333 33.3621 2.33333C16.2675 2.33333 2.34362 16.1961 2.34362 33.3529C2.34362 44.6078 8.40947 54.7647 18.0597 60.3921L20.1276 50.7843C20.2654 50.2353 20.679 49.8235 21.2305 49.8235Z" fill="#142A58"/>
<path d="M17.5081 70C17.2324 70 16.9567 69.8628 16.8188 69.7255C16.4052 69.451 16.2674 69.0393 16.4052 68.6275L20.1274 50.7843C20.2653 50.2353 20.6789 49.8236 21.2303 49.8236H45.6315C46.183 49.8236 46.5966 50.2353 46.7344 50.7843L50.5945 68.6275C50.7324 68.902 50.5945 69.3138 50.3188 69.5883C50.0431 69.8628 49.7674 70 49.3538 70C37.2221 70 18.7488 69.8628 17.5081 70C17.5081 70 17.646 70 17.5081 70ZM26.6069 67.6667C31.1562 67.6667 37.9114 67.6667 47.9752 67.6667L44.6665 52.1569H22.1953L18.8867 67.804C20.2653 67.6667 22.6089 67.6667 26.6069 67.6667Z" fill="#142A58"/>
<path d="M54.3167 70H12.683C11.9937 70 11.5801 69.4509 11.5801 68.9019C11.5801 68.2157 12.1315 67.8039 12.683 67.8039H54.3167C55.006 67.8039 55.4196 68.3529 55.4196 68.9019C55.4196 69.5882 55.006 70 54.3167 70Z" fill="#142A58"/>
<path d="M55.9708 44.1962C55.833 44.1962 55.6951 44.1962 55.5572 44.0589C55.0058 43.7844 54.7301 43.0981 55.0058 42.5491C56.2465 39.6668 56.9358 36.5099 56.9358 33.353C56.9358 20.4511 46.4585 10.0197 33.4996 10.0197C20.5408 10.0197 10.0634 20.4511 10.0634 33.353C10.0634 36.5099 10.7527 39.6668 11.9935 42.5491C12.2692 43.0981 11.9935 43.7844 11.442 44.0589C10.8906 44.3334 10.2013 44.0589 9.92556 43.5099C8.54696 40.353 7.85766 36.9217 7.85766 33.353C7.7198 19.2158 19.3 7.68638 33.4996 7.68638C47.6992 7.68638 59.2795 19.2158 59.2795 33.353C59.2795 36.9217 58.5902 40.2158 57.2116 43.5099C56.9358 43.9217 56.5223 44.1962 55.9708 44.1962Z" fill="#142A58"/>
<path d="M27.7102 65.7452H23.7123C23.023 65.7452 22.6094 65.1961 22.6094 64.6471C22.6094 63.9608 23.1608 63.5491 23.7123 63.5491H27.7102C28.3995 63.5491 28.8131 64.0981 28.8131 64.6471C28.8131 65.1961 28.2616 65.7452 27.7102 65.7452Z" fill="#142A58"/>
<path d="M28.3987 62.0393H24.4007C23.7114 62.0393 23.2979 61.4903 23.2979 60.9413C23.2979 60.255 23.8493 59.8432 24.4007 59.8432H28.3987C29.088 59.8432 29.5016 60.3923 29.5016 60.9413C29.5016 61.6276 29.088 62.0393 28.3987 62.0393Z" fill="#142A58"/>
<path d="M29.0881 58.4706H25.0902C24.4009 58.4706 23.9873 57.9216 23.9873 57.3725C23.9873 56.6863 24.5387 56.2745 25.0902 56.2745H29.0881C29.7774 56.2745 30.191 56.8235 30.191 57.3725C30.3289 57.9216 29.7774 58.4706 29.0881 58.4706Z" fill="#142A58"/>
</g>
<defs>
<clipPath id="clip0_407_51">
<rect width="67" height="70" fill="white"/>
</clipPath>
</defs>
</svg>
