<svg width="27" height="23" viewBox="0 0 27 23" fill="none" xmlns="http://www.w3.org/2000/svg">
<path d="M8.70165 10.2808C8.04814 10.0926 7.39463 9.99716 6.75894 9.99716C5.77729 9.99716 4.95818 10.2215 4.32304 10.4962C4.93535 8.25457 6.4063 4.38668 9.33651 3.9511C9.60787 3.91075 9.83026 3.71453 9.90429 3.4504L10.5447 1.15978C10.5987 0.966067 10.5667 0.758715 10.4562 0.590607C10.3457 0.422498 10.1681 0.310333 9.96914 0.283057C9.75288 0.253555 9.53245 0.238525 9.31396 0.238525C5.79677 0.238525 2.31353 3.90963 0.843697 9.16608C-0.0191104 12.2499 -0.272108 16.8863 1.85318 19.8045C3.04246 21.4374 4.77754 22.3094 7.01027 22.3965C7.01945 22.3968 7.02836 22.3971 7.03754 22.3971C9.7924 22.3971 12.2353 20.5418 12.9784 17.8857C13.4223 16.2979 13.2216 14.6327 12.4128 13.1957C11.6126 11.7748 10.2948 10.7392 8.70165 10.2808Z" fill="#11D5D5"/>
<path d="M25.9463 13.1957C25.1461 11.7746 23.8282 10.7389 22.2351 10.2805C21.5816 10.0924 20.9281 9.99691 20.2927 9.99691C19.311 9.99691 18.4916 10.2212 17.8565 10.4959C18.4688 8.25432 19.9397 4.38644 22.8702 3.95086C23.1416 3.9105 23.3637 3.71428 23.438 3.45015L24.0784 1.15954C24.1324 0.965823 24.1004 0.758471 23.9899 0.590362C23.8797 0.422254 23.7021 0.310089 23.5029 0.282813C23.2869 0.253311 23.0664 0.238281 22.8477 0.238281C19.3305 0.238281 15.8473 3.90939 14.3771 9.16583C13.5146 12.2497 13.2616 16.886 15.3872 19.8048C16.5762 21.4375 18.3115 22.3097 20.544 22.3966C20.5532 22.3968 20.5621 22.3971 20.5715 22.3971C23.3261 22.3971 25.7693 20.5418 26.5124 17.8858C26.9558 16.2979 26.7548 14.6324 25.9463 13.1957Z" fill="#11D5D5"/>
</svg>
